<mxfile host="app.diagrams.net" modified="2020-10-05T00:56:42.375Z" agent="5.0 (Macintosh; Intel Mac OS X 10_13_6) AppleWebKit/537.36 (KHTML, like Gecko) Chrome/85.0.4183.121 Safari/537.36" etag="jxWOKwni08R48DVk4bNX" version="13.7.7" type="github" pages="2">
  <diagram name="Page-1" id="dd472eb7-4b8b-5cd9-a60b-b15522922e76">
    <mxGraphModel dx="3784" dy="2492" grid="1" gridSize="10" guides="1" tooltips="1" connect="1" arrows="1" fold="1" page="1" pageScale="1" pageWidth="1100" pageHeight="850" background="#ffffff" math="0" shadow="0">
      <root>
        <mxCell id="0" />
        <mxCell id="1" parent="0" />
        <mxCell id="374e34682ed331ee-1" value="Business&lt;div&gt;Model&lt;/div&gt;" style="ellipse;whiteSpace=wrap;html=1;rounded=0;shadow=0;dashed=0;comic=0;fontFamily=Verdana;fontSize=22;fontColor=#0069D1;fillColor=#f5f5f5;strokeColor=#666666;" parent="1" vertex="1">
          <mxGeometry x="330" y="180" width="400" height="400" as="geometry" />
        </mxCell>
        <mxCell id="45236fa5f4b8e91a-1" value="Stage 1" style="ellipse;whiteSpace=wrap;html=1;rounded=0;shadow=0;dashed=0;comic=0;fontFamily=Verdana;fontSize=22;fontColor=#0069D1;fillColor=#f5f5f5;strokeColor=#666666;" parent="1" vertex="1">
          <mxGeometry x="450" y="40" width="160" height="160" as="geometry" />
        </mxCell>
        <mxCell id="45236fa5f4b8e91a-2" value="Stage 5" style="ellipse;whiteSpace=wrap;html=1;rounded=0;shadow=0;dashed=0;comic=0;fontFamily=Verdana;fontSize=22;fontColor=#0069D1;fillColor=#f5f5f5;strokeColor=#666666;" parent="1" vertex="1">
          <mxGeometry x="450" y="560" width="160" height="160" as="geometry" />
        </mxCell>
        <mxCell id="45236fa5f4b8e91a-3" value="Stage 3" style="ellipse;whiteSpace=wrap;html=1;rounded=0;shadow=0;dashed=0;comic=0;fontFamily=Verdana;fontSize=22;fontColor=#0069D1;fillColor=#f5f5f5;strokeColor=#666666;" parent="1" vertex="1">
          <mxGeometry x="710" y="300" width="160" height="160" as="geometry" />
        </mxCell>
        <mxCell id="45236fa5f4b8e91a-4" value="Stage 7" style="ellipse;whiteSpace=wrap;html=1;rounded=0;shadow=0;dashed=0;comic=0;fontFamily=Verdana;fontSize=22;fontColor=#0069D1;fillColor=#f5f5f5;strokeColor=#666666;" parent="1" vertex="1">
          <mxGeometry x="190" y="300" width="160" height="160" as="geometry" />
        </mxCell>
        <mxCell id="45236fa5f4b8e91a-5" value="Stage 8" style="ellipse;whiteSpace=wrap;html=1;rounded=0;shadow=0;dashed=0;comic=0;fontFamily=Verdana;fontSize=22;fontColor=#0069D1;fillColor=#f5f5f5;strokeColor=#666666;" parent="1" vertex="1">
          <mxGeometry x="280" y="130" width="160" height="160" as="geometry" />
        </mxCell>
        <mxCell id="45236fa5f4b8e91a-6" value="Stage 2" style="ellipse;whiteSpace=wrap;html=1;rounded=0;shadow=0;dashed=0;comic=0;fontFamily=Verdana;fontSize=22;fontColor=#0069D1;fillColor=#f5f5f5;strokeColor=#666666;" parent="1" vertex="1">
          <mxGeometry x="620" y="130" width="160" height="160" as="geometry" />
        </mxCell>
        <mxCell id="45236fa5f4b8e91a-7" value="Stage 4" style="ellipse;whiteSpace=wrap;html=1;rounded=0;shadow=0;dashed=0;comic=0;fontFamily=Verdana;fontSize=22;fontColor=#0069D1;fillColor=#f5f5f5;strokeColor=#666666;" parent="1" vertex="1">
          <mxGeometry x="620" y="470" width="160" height="160" as="geometry" />
        </mxCell>
        <mxCell id="45236fa5f4b8e91a-8" value="Stage 6" style="ellipse;whiteSpace=wrap;html=1;rounded=0;shadow=0;dashed=0;comic=0;fontFamily=Verdana;fontSize=22;fontColor=#0069D1;fillColor=#f5f5f5;strokeColor=#666666;" parent="1" vertex="1">
          <mxGeometry x="280" y="470" width="160" height="160" as="geometry" />
        </mxCell>
        <mxCell id="HtAO-0QYnQzlMAlUf2nB-1" value="" style="shape=image;verticalLabelPosition=bottom;verticalAlign=top;imageAspect=0;aspect=fixed;image=data:image/svg+xml,PHN2ZyB4bWxucz0iaHR0cDovL3d3dy53My5vcmcvMjAwMC9zdmciIHdpZHRoPSIxOTAiIGhlaWdodD0iMjMwIiB2aWV3Qm94PSIwIDAgMTkwIDIzMCIgZmlsbD0ibm9uZSI+JiN4YTs8ZyBmaWx0ZXI9InVybCgjZmlsdGVyMF9kKSI+JiN4YTs8cmVjdCB4PSI0IiB5PSIzIiB3aWR0aD0iMTgwIiBoZWlnaHQ9IjIyMCIgZmlsbD0id2hpdGUiLz4mI3hhOzxyZWN0IHg9IjMwIiB5PSIxNjMiIHdpZHRoPSIyNyIgaGVpZ2h0PSIyNyIgZmlsbD0iI0VERURFRCIvPiYjeGE7PHJlY3QgeD0iNjQiIHk9IjE2MyIgd2lkdGg9IjI3IiBoZWlnaHQ9IjI3IiBmaWxsPSIjRURFREVEIi8+JiN4YTs8cmVjdCB4PSI5OCIgeT0iMTI3IiB3aWR0aD0iNjEiIGhlaWdodD0iNjMiIGZpbGw9IiNGN0Y3RjciLz4mI3hhOzxyZWN0IHg9IjI5IiB5PSIxMjciIHdpZHRoPSI2MiIgaGVpZ2h0PSIyNCIgZmlsbD0iI0VERURFRCIvPiYjeGE7PHBhdGggZD0iTTM4IDEwMkw2My42MzA3IDcwLjk3MzRDNjQuOTk1IDY5LjMyMTkgNjcuNjAwNiA2OS41OTEyIDY4LjU5ODMgNzEuNDg2OEw3OC42MjE1IDkwLjUzMDlDNzkuNzg4MSA5Mi43NDc0IDgyLjk5NjYgOTIuNjQyOSA4NC4wMTY0IDkwLjM1NTJMOTcuODIwNSA1OS4zODkyQzk4Ljc3NDcgNTcuMjQ4NyAxMDEuNzA1IDU2Ljk3OTkgMTAzLjAzMyA1OC45MTExTDExNC4xMjQgNzUuMDQ0N0MxMTUuMjkgNzYuNzM5NCAxMTcuNzc2IDc2Ljc4NiAxMTkuMDAzIDc1LjEzNjJMMTI5LjY1IDYwLjgyOUMxMzAuOTcgNTkuMDU1OCAxMzMuNjg5IDU5LjI3IDEzNC43MTUgNjEuMjI4TDE1NC41IDk5IiBzdHJva2U9IiNDQ0NDQ0MiIHN0cm9rZS13aWR0aD0iMiIvPiYjeGE7PGNpcmNsZSBjeD0iNjUiIGN5PSI3MCIgcj0iNCIgZmlsbD0id2hpdGUiIHN0cm9rZT0iI0NDQ0NDQyIgc3Ryb2tlLXdpZHRoPSIyIi8+JiN4YTs8Y2lyY2xlIGN4PSIxMDAiIGN5PSI1NyIgcj0iNCIgZmlsbD0id2hpdGUiIHN0cm9rZT0iI0NDQ0NDQyIgc3Ryb2tlLXdpZHRoPSIyIi8+JiN4YTs8Y2lyY2xlIGN4PSI4MSIgY3k9IjkxIiByPSI0IiBmaWxsPSJ3aGl0ZSIgc3Ryb2tlPSIjQ0NDQ0NDIiBzdHJva2Utd2lkdGg9IjIiLz4mI3hhOzxjaXJjbGUgY3g9IjExNyIgY3k9Ijc1IiByPSI0IiBmaWxsPSJ3aGl0ZSIgc3Ryb2tlPSIjQ0NDQ0NDIiBzdHJva2Utd2lkdGg9IjIiLz4mI3hhOzxjaXJjbGUgY3g9IjEzMiIgY3k9IjYwIiByPSI0IiBmaWxsPSJ3aGl0ZSIgc3Ryb2tlPSIjQ0NDQ0NDIiBzdHJva2Utd2lkdGg9IjIiLz4mI3hhOzxwYXRoIGQ9Ik0yOS40NzY2IDMzLjg0MThDMjkuMzUzNSAzNC44OTQ1IDI4Ljk2MzkgMzUuNzA4IDI4LjMwNzYgMzYuMjgyMkMyNy42NTU5IDM2Ljg1MTkgMjYuNzg3OCAzNy4xMzY3IDI1LjcwMzEgMzcuMTM2N0MyNC41MjczIDM3LjEzNjcgMjMuNTg0IDM2LjcxNTIgMjIuODczIDM1Ljg3MjFDMjIuMTY2NyAzNS4wMjkgMjEuODEzNSAzMy45MDEgMjEuODEzNSAzMi40ODgzVjMxLjUzMTJDMjEuODEzNSAzMC42MDYxIDIxLjk3NzUgMjkuNzkyNiAyMi4zMDU3IDI5LjA5MDhDMjIuNjM4MyAyOC4zODkgMjMuMTA3NyAyNy44NTEyIDIzLjcxMzkgMjcuNDc3NUMyNC4zMiAyNy4wOTkzIDI1LjAyMTggMjYuOTEwMiAyNS44MTkzIDI2LjkxMDJDMjYuODc2NiAyNi45MTAyIDI3LjcyNDMgMjcuMjA2NCAyOC4zNjIzIDI3Ljc5ODhDMjkuMDAwMyAyOC4zODY3IDI5LjM3MTcgMjkuMjAyNSAyOS40NzY2IDMwLjI0NjFIMjguMTU3MkMyOC4wNDMzIDI5LjQ1MzEgMjcuNzk0OSAyOC44Nzg5IDI3LjQxMjEgMjguNTIzNEMyNy4wMzM5IDI4LjE2OCAyNi41MDI5IDI3Ljk5MDIgMjUuODE5MyAyNy45OTAyQzI0Ljk4MDggMjcuOTkwMiAyNC4zMjIzIDI4LjMwMDEgMjMuODQzOCAyOC45MTk5QzIzLjM2OTggMjkuNTM5NyAyMy4xMzI4IDMwLjQyMTUgMjMuMTMyOCAzMS41NjU0VjMyLjUyOTNDMjMuMTMyOCAzMy42MDk0IDIzLjM1ODQgMzQuNDY4NCAyMy44MDk2IDM1LjEwNjRDMjQuMjYwNyAzNS43NDQ1IDI0Ljg5MTkgMzYuMDYzNSAyNS43MDMxIDM2LjA2MzVDMjYuNDMyMyAzNi4wNjM1IDI2Ljk5MDYgMzUuODk5NCAyNy4zNzc5IDM1LjU3MTNDMjcuNzY5OSAzNS4yMzg2IDI4LjAyOTYgMzQuNjYyMSAyOC4xNTcyIDMzLjg0MThIMjkuNDc2NlpNMzIuMzQwOCAzMC40OTlDMzIuOTAxNCAyOS44MTA5IDMzLjYzMDUgMjkuNDY2OCAzNC41MjgzIDI5LjQ2NjhDMzYuMDkxNSAyOS40NjY4IDM2Ljg3OTkgMzAuMzQ4NiAzNi44OTM2IDMyLjExMjNWMzdIMzUuNjI4OVYzMi4xMDU1QzM1LjYyNDMgMzEuNTcyMyAzNS41MDEzIDMxLjE3ODEgMzUuMjU5OCAzMC45MjI5QzM1LjAyMjggMzAuNjY3NiAzNC42NTE0IDMwLjU0IDM0LjE0NTUgMzAuNTRDMzMuNzM1NCAzMC41NCAzMy4zNzUzIDMwLjY0OTQgMzMuMDY1NCAzMC44NjgyQzMyLjc1NTUgMzEuMDg2OSAzMi41MTQgMzEuMzc0IDMyLjM0MDggMzEuNzI5NVYzN0gzMS4wNzYyVjI2LjVIMzIuMzQwOFYzMC40OTlaTTQzLjM1MzUgMzdDNDMuMjgwNiAzNi44NTQyIDQzLjIyMTQgMzYuNTk0NCA0My4xNzU4IDM2LjIyMDdDNDIuNTg3OSAzNi44MzE0IDQxLjg4NjEgMzcuMTM2NyA0MS4wNzAzIDM3LjEzNjdDNDAuMzQxMSAzNy4xMzY3IDM5Ljc0MTkgMzYuOTMxNiAzOS4yNzI1IDM2LjUyMTVDMzguODA3NiAzNi4xMDY4IDM4LjU3NTIgMzUuNTgyNyAzOC41NzUyIDM0Ljk0OTJDMzguNTc1MiAzNC4xNzkgMzguODY2OSAzMy41ODIgMzkuNDUwMiAzMy4xNTgyQzQwLjAzODEgMzIuNzI5OCA0MC44NjMgMzIuNTE1NiA0MS45MjQ4IDMyLjUxNTZINDMuMTU1M1YzMS45MzQ2QzQzLjE1NTMgMzEuNDkyNSA0My4wMjMxIDMxLjE0MTYgNDIuNzU4OCAzMC44ODE4QzQyLjQ5NDUgMzAuNjE3NSA0Mi4xMDQ4IDMwLjQ4NTQgNDEuNTg5OCAzMC40ODU0QzQxLjEzODcgMzAuNDg1NCA0MC43NjA0IDMwLjU5OTMgNDAuNDU1MSAzMC44MjcxQzQwLjE0OTcgMzEuMDU1IDM5Ljk5NzEgMzEuMzMwNyAzOS45OTcxIDMxLjY1NDNIMzguNzI1NkMzOC43MjU2IDMxLjI4NTIgMzguODU1NSAzMC45Mjk3IDM5LjExNTIgMzAuNTg3OUMzOS4zNzk2IDMwLjI0MTUgMzkuNzM1IDI5Ljk2ODEgNDAuMTgxNiAyOS43Njc2QzQwLjYzMjggMjkuNTY3MSA0MS4xMjczIDI5LjQ2NjggNDEuNjY1IDI5LjQ2NjhDNDIuNTE3MyAyOS40NjY4IDQzLjE4NDkgMjkuNjgxIDQzLjY2OCAzMC4xMDk0QzQ0LjE1MSAzMC41MzMyIDQ0LjQwMTcgMzEuMTE4OCA0NC40MTk5IDMxLjg2NjJWMzUuMjcwNUM0NC40MTk5IDM1Ljk0OTUgNDQuNTA2NSAzNi40ODk2IDQ0LjY3OTcgMzYuODkwNlYzN0g0My4zNTM1Wk00MS4yNTQ5IDM2LjAzNjFDNDEuNjUxNCAzNi4wMzYxIDQyLjAyNzMgMzUuOTMzNiA0Mi4zODI4IDM1LjcyODVDNDIuNzM4MyAzNS41MjM0IDQyLjk5NTggMzUuMjU2OCA0My4xNTUzIDM0LjkyODdWMzMuNDExMUg0Mi4xNjQxQzQwLjYxNDYgMzMuNDExMSAzOS44Mzk4IDMzLjg2NDYgMzkuODM5OCAzNC43NzE1QzM5LjgzOTggMzUuMTY4IDM5Ljk3MiAzNS40Nzc5IDQwLjIzNjMgMzUuNzAxMkM0MC41MDA3IDM1LjkyNDUgNDAuODQwMiAzNi4wMzYxIDQxLjI1NDkgMzYuMDM2MVpNNDkuOTc3NSAzMC43MzgzQzQ5Ljc4NjEgMzAuNzA2NCA0OS41Nzg4IDMwLjY5MDQgNDkuMzU1NSAzMC42OTA0QzQ4LjUyNiAzMC42OTA0IDQ3Ljk2MzIgMzEuMDQzNiA0Ny42NjcgMzEuNzVWMzdINDYuNDAyM1YyOS42MDM1SDQ3LjYzMjhMNDcuNjUzMyAzMC40NThDNDguMDY4IDI5Ljc5NzIgNDguNjU1OSAyOS40NjY4IDQ5LjQxNyAyOS40NjY4QzQ5LjY2MzEgMjkuNDY2OCA0OS44NDk5IDI5LjQ5ODcgNDkuOTc3NSAyOS41NjI1VjMwLjczODNaTTUzLjIwNDEgMjcuODEyNVYyOS42MDM1SDU0LjU4NVYzMC41ODExSDUzLjIwNDFWMzUuMTY4QzUzLjIwNDEgMzUuNDY0MiA1My4yNjU2IDM1LjY4NzUgNTMuMzg4NyAzNS44Mzc5QzUzLjUxMTcgMzUuOTgzNyA1My43MjE0IDM2LjA1NjYgNTQuMDE3NiAzNi4wNTY2QzU0LjE2MzQgMzYuMDU2NiA1NC4zNjM5IDM2LjAyOTMgNTQuNjE5MSAzNS45NzQ2VjM3QzU0LjI4NjUgMzcuMDkxMSA1My45NjI5IDM3LjEzNjcgNTMuNjQ4NCAzNy4xMzY3QzUzLjA4MzMgMzcuMTM2NyA1Mi42NTcyIDM2Ljk2NTggNTIuMzcwMSAzNi42MjRDNTIuMDgzIDM2LjI4MjIgNTEuOTM5NSAzNS43OTY5IDUxLjkzOTUgMzUuMTY4VjMwLjU4MTFINTAuNTkyOFYyOS42MDM1SDUxLjkzOTVWMjcuODEyNUg1My4yMDQxWiIgZmlsbD0iIzM4MzgzOCIvPiYjeGE7PHBhdGggZD0iTTEyIDRIMTc2VjJIMTJWNFpNMTgzIDExVjIxNUgxODVWMTFIMTgzWk0xNzYgMjIySDEyVjIyNEgxNzZWMjIyWk01IDIxNVYxMUgzVjIxNUg1Wk0xMiAyMjJDOC4xMzQwMSAyMjIgNSAyMTguODY2IDUgMjE1SDNDMyAyMTkuOTcxIDcuMDI5NDQgMjI0IDEyIDIyNFYyMjJaTTE4MyAyMTVDMTgzIDIxOC44NjYgMTc5Ljg2NiAyMjIgMTc2IDIyMlYyMjRDMTgwLjk3MSAyMjQgMTg1IDIxOS45NzEgMTg1IDIxNUgxODNaTTE3NiA0QzE3OS44NjYgNCAxODMgNy4xMzQwMSAxODMgMTFIMTg1QzE4NSA2LjAyOTQ0IDE4MC45NzEgMiAxNzYgMlY0Wk0xMiAyQzcuMDI5NDQgMiAzIDYuMDI5NDQgMyAxMUg1QzUgNy4xMzQwMSA4LjEzNDAxIDQgMTIgNFYyWiIgZmlsbD0iI0VERURFRCIvPiYjeGE7PC9nPiYjeGE7PGRlZnM+JiN4YTs8ZmlsdGVyIGlkPSJmaWx0ZXIwX2QiIHg9IjAiIHk9IjAiIHdpZHRoPSIxOTAiIGhlaWdodD0iMjMwIiBmaWx0ZXJVbml0cz0idXNlclNwYWNlT25Vc2UiIGNvbG9yLWludGVycG9sYXRpb24tZmlsdGVycz0ic1JHQiI+JiN4YTs8ZmVGbG9vZCBmbG9vZC1vcGFjaXR5PSIwIiByZXN1bHQ9IkJhY2tncm91bmRJbWFnZUZpeCIvPiYjeGE7PGZlQ29sb3JNYXRyaXggaW49IlNvdXJjZUFscGhhIiB0eXBlPSJtYXRyaXgiIHZhbHVlcz0iMCAwIDAgMCAwIDAgMCAwIDAgMCAwIDAgMCAwIDAgMCAwIDAgMTI3IDAiLz4mI3hhOzxmZU9mZnNldCBkeD0iMSIgZHk9IjIiLz4mI3hhOzxmZUdhdXNzaWFuQmx1ciBzdGREZXZpYXRpb249IjIuNSIvPiYjeGE7PGZlQ29sb3JNYXRyaXggdHlwZT0ibWF0cml4IiB2YWx1ZXM9IjAgMCAwIDAgMCAwIDAgMCAwIDAgMCAwIDAgMCAwIDAgMCAwIDAuMSAwIi8+JiN4YTs8ZmVCbGVuZCBtb2RlPSJub3JtYWwiIGluMj0iQmFja2dyb3VuZEltYWdlRml4IiByZXN1bHQ9ImVmZmVjdDFfZHJvcFNoYWRvdyIvPiYjeGE7PGZlQmxlbmQgbW9kZT0ibm9ybWFsIiBpbj0iU291cmNlR3JhcGhpYyIgaW4yPSJlZmZlY3QxX2Ryb3BTaGFkb3ciIHJlc3VsdD0ic2hhcGUiLz4mI3hhOzwvZmlsdGVyPiYjeGE7PC9kZWZzPiYjeGE7PC9zdmc+" vertex="1" parent="1">
          <mxGeometry x="890" y="50" width="190" height="230" as="geometry" />
        </mxCell>
      </root>
    </mxGraphModel>
  </diagram>
  <diagram id="ylj2h-WnP-IuSrrEyhpo" name="Page-2">
    <mxGraphModel dx="946" dy="623" grid="1" gridSize="10" guides="1" tooltips="1" connect="1" arrows="1" fold="1" page="1" pageScale="1" pageWidth="827" pageHeight="1169" math="0" shadow="0">
      <root>
        <mxCell id="HNRIqbhkoCb8RxChyB7E-0" />
        <mxCell id="HNRIqbhkoCb8RxChyB7E-1" parent="HNRIqbhkoCb8RxChyB7E-0" />
        <mxCell id="HNRIqbhkoCb8RxChyB7E-4" style="edgeStyle=orthogonalEdgeStyle;rounded=0;orthogonalLoop=1;jettySize=auto;html=1;exitX=1;exitY=0.5;exitDx=0;exitDy=0;entryX=0;entryY=0.5;entryDx=0;entryDy=0;" edge="1" parent="HNRIqbhkoCb8RxChyB7E-1" source="HNRIqbhkoCb8RxChyB7E-2" target="HNRIqbhkoCb8RxChyB7E-3">
          <mxGeometry relative="1" as="geometry" />
        </mxCell>
        <mxCell id="HNRIqbhkoCb8RxChyB7E-2" value="" style="shape=image;verticalLabelPosition=bottom;verticalAlign=top;imageAspect=0;aspect=fixed;image=data:image/svg+xml,PHN2ZyB4bWxucz0iaHR0cDovL3d3dy53My5vcmcvMjAwMC9zdmciIHdpZHRoPSIxOTAiIGhlaWdodD0iMjMwIiB2aWV3Qm94PSIwIDAgMTkwIDIzMCIgZmlsbD0ibm9uZSI+JiN4YTs8ZyBmaWx0ZXI9InVybCgjZmlsdGVyMF9kKSI+JiN4YTs8cmVjdCB4PSI0IiB5PSIzIiB3aWR0aD0iMTgwIiBoZWlnaHQ9IjIyMCIgZmlsbD0id2hpdGUiLz4mI3hhOzxyZWN0IHg9IjMwIiB5PSIxNjMiIHdpZHRoPSIyNyIgaGVpZ2h0PSIyNyIgZmlsbD0iI0Y3RjdGNyIvPiYjeGE7PHJlY3QgeD0iNjQiIHk9IjE2MyIgd2lkdGg9IjI3IiBoZWlnaHQ9IjI3IiBmaWxsPSIjRjdGN0Y3Ii8+JiN4YTs8cmVjdCB4PSI5OCIgeT0iMTYzIiB3aWR0aD0iNjEiIGhlaWdodD0iMjciIGZpbGw9IiNFREVERUQiLz4mI3hhOzxyZWN0IHg9IjI5IiB5PSI5MiIgd2lkdGg9IjEzMCIgaGVpZ2h0PSIyNCIgZmlsbD0iI0VERURFRCIvPiYjeGE7PHBhdGggZD0iTTE0NS41IDEwOEwxMzkuODcxIDEwMS4yNUwxNTEuMTI5IDEwMS4yNUwxNDUuNSAxMDhaIiBmaWxsPSJ3aGl0ZSIvPiYjeGE7PHJlY3QgeD0iMjkiIHk9IjEyNyIgd2lkdGg9IjEzMCIgaGVpZ2h0PSIyNCIgZmlsbD0iI0VERURFRCIvPiYjeGE7PHBhdGggZD0iTTE0NS41IDE0M0wxMzkuODcxIDEzNi4yNUwxNTEuMTI5IDEzNi4yNUwxNDUuNSAxNDNaIiBmaWxsPSJ3aGl0ZSIvPiYjeGE7PHJlY3QgeD0iMjkiIHk9IjU3IiB3aWR0aD0iMTMwIiBoZWlnaHQ9IjI0IiBmaWxsPSIjRURFREVEIi8+JiN4YTs8cGF0aCBkPSJNMjcuNjQ0NSAzMi42MDQ1SDIzLjQ2NzhWMzdIMjIuMTU1M1YyNy4wNDY5SDI4LjMyMTNWMjguMTI3SDIzLjQ2NzhWMzEuNTMxMkgyNy42NDQ1VjMyLjYwNDVaTTI5LjIxIDMzLjIzMzRDMjkuMjEgMzIuNTA4OCAyOS4zNTEyIDMxLjg1NzEgMjkuNjMzOCAzMS4yNzgzQzI5LjkyMDkgMzAuNjk5NSAzMC4zMTc0IDMwLjI1MjkgMzAuODIzMiAyOS45Mzg1QzMxLjMzMzcgMjkuNjI0IDMxLjkxNDcgMjkuNDY2OCAzMi41NjY0IDI5LjQ2NjhDMzMuNTczNiAyOS40NjY4IDM0LjM4NyAyOS44MTU0IDM1LjAwNjggMzAuNTEyN0MzNS42MzEyIDMxLjIxIDM1Ljk0MzQgMzIuMTM3NCAzNS45NDM0IDMzLjI5NDlWMzMuMzgzOEMzNS45NDM0IDM0LjEwMzggMzUuODA0NCAzNC43NTEgMzUuNTI2NCAzNS4zMjUyQzM1LjI1MjkgMzUuODk0OSAzNC44NTg3IDM2LjMzOTIgMzQuMzQzOCAzNi42NTgyQzMzLjgzMzMgMzYuOTc3MiAzMy4yNDU0IDM3LjEzNjcgMzIuNTgwMSAzNy4xMzY3QzMxLjU3NzUgMzcuMTM2NyAzMC43NjQgMzYuNzg4MSAzMC4xMzk2IDM2LjA5MDhDMjkuNTE5OSAzNS4zOTM2IDI5LjIxIDM0LjQ3MDcgMjkuMjEgMzMuMzIyM1YzMy4yMzM0Wk0zMC40ODE0IDMzLjM4MzhDMzAuNDgxNCAzNC4yMDQxIDMwLjY3MDYgMzQuODYyNiAzMS4wNDg4IDM1LjM1OTRDMzEuNDMxNiAzNS44NTYxIDMxLjk0MjEgMzYuMTA0NSAzMi41ODAxIDM2LjEwNDVDMzMuMjIyNyAzNi4xMDQ1IDMzLjczMzEgMzUuODUzOCAzNC4xMTEzIDM1LjM1MjVDMzQuNDg5NiAzNC44NDY3IDM0LjY3ODcgMzQuMTQwMyAzNC42Nzg3IDMzLjIzMzRDMzQuNjc4NyAzMi40MjIyIDM0LjQ4NSAzMS43NjYgMzQuMDk3NyAzMS4yNjQ2QzMzLjcxNDggMzAuNzU4OCAzMy4yMDQ0IDMwLjUwNTkgMzIuNTY2NCAzMC41MDU5QzMxLjk0MjEgMzAuNTA1OSAzMS40Mzg1IDMwLjc1NDIgMzEuMDU1NyAzMS4yNTFDMzAuNjcyOSAzMS43NDc3IDMwLjQ4MTQgMzIuNDU4NyAzMC40ODE0IDMzLjM4MzhaTTQxLjEwNDUgMzAuNzM4M0M0MC45MTMxIDMwLjcwNjQgNDAuNzA1NyAzMC42OTA0IDQwLjQ4MjQgMzAuNjkwNEMzOS42NTMgMzAuNjkwNCAzOS4wOTAyIDMxLjA0MzYgMzguNzkzOSAzMS43NVYzN0gzNy41MjkzVjI5LjYwMzVIMzguNzU5OEwzOC43ODAzIDMwLjQ1OEMzOS4xOTUgMjkuNzk3MiAzOS43ODI5IDI5LjQ2NjggNDAuNTQzOSAyOS40NjY4QzQwLjc5IDI5LjQ2NjggNDAuOTc2OSAyOS40OTg3IDQxLjEwNDUgMjkuNTYyNVYzMC43MzgzWk00My40NjI5IDI5LjYwMzVMNDMuNDk3MSAzMC40MjM4QzQ0LjAzOTQgMjkuNzg1OCA0NC43NzA4IDI5LjQ2NjggNDUuNjkxNCAyOS40NjY4QzQ2LjcyNTkgMjkuNDY2OCA0Ny40MyAyOS44NjMzIDQ3LjgwMzcgMzAuNjU2MkM0OC4wNDk4IDMwLjMwMDggNDguMzY4OCAzMC4wMTM3IDQ4Ljc2MDcgMjkuNzk0OUM0OS4xNTcyIDI5LjU3NjIgNDkuNjI0MyAyOS40NjY4IDUwLjE2MjEgMjkuNDY2OEM1MS43ODQ1IDI5LjQ2NjggNTIuNjA5NCAzMC4zMjU4IDUyLjYzNjcgMzIuMDQzOVYzN0g1MS4zNzIxVjMyLjExOTFDNTEuMzcyMSAzMS41OTA1IDUxLjI1MTMgMzEuMTk2MyA1MS4wMDk4IDMwLjkzNjVDNTAuNzY4MiAzMC42NzIyIDUwLjM2MjYgMzAuNTQgNDkuNzkzIDMwLjU0QzQ5LjMyMzYgMzAuNTQgNDguOTMzOSAzMC42ODEzIDQ4LjYyNCAzMC45NjM5QzQ4LjMxNDEgMzEuMjQxOSA0OC4xMzQxIDMxLjYxNzggNDguMDg0IDMyLjA5MThWMzdINDYuODEyNVYzMi4xNTMzQzQ2LjgxMjUgMzEuMDc3OCA0Ni4yODYxIDMwLjU0IDQ1LjIzMzQgMzAuNTRDNDQuNDA0IDMwLjU0IDQzLjgzNjYgMzAuODkzMiA0My41MzEyIDMxLjU5OTZWMzdINDIuMjY2NlYyOS42MDM1SDQzLjQ2MjlaIiBmaWxsPSIjMzgzODM4Ii8+JiN4YTs8cGF0aCBkPSJNMTIgNEgxNzZWMkgxMlY0Wk0xODMgMTFWMjE1SDE4NVYxMUgxODNaTTE3NiAyMjJIMTJWMjI0SDE3NlYyMjJaTTUgMjE1VjExSDNWMjE1SDVaTTEyIDIyMkM4LjEzNDAxIDIyMiA1IDIxOC44NjYgNSAyMTVIM0MzIDIxOS45NzEgNy4wMjk0NCAyMjQgMTIgMjI0VjIyMlpNMTgzIDIxNUMxODMgMjE4Ljg2NiAxNzkuODY2IDIyMiAxNzYgMjIyVjIyNEMxODAuOTcxIDIyNCAxODUgMjE5Ljk3MSAxODUgMjE1SDE4M1pNMTc2IDRDMTc5Ljg2NiA0IDE4MyA3LjEzNDAxIDE4MyAxMUgxODVDMTg1IDYuMDI5NDQgMTgwLjk3MSAyIDE3NiAyVjRaTTEyIDJDNy4wMjk0NCAyIDMgNi4wMjk0NCAzIDExSDVDNSA3LjEzNDAxIDguMTM0MDEgNCAxMiA0VjJaIiBmaWxsPSIjRURFREVEIi8+JiN4YTs8L2c+JiN4YTs8ZGVmcz4mI3hhOzxmaWx0ZXIgaWQ9ImZpbHRlcjBfZCIgeD0iMCIgeT0iMCIgd2lkdGg9IjE5MCIgaGVpZ2h0PSIyMzAiIGZpbHRlclVuaXRzPSJ1c2VyU3BhY2VPblVzZSIgY29sb3ItaW50ZXJwb2xhdGlvbi1maWx0ZXJzPSJzUkdCIj4mI3hhOzxmZUZsb29kIGZsb29kLW9wYWNpdHk9IjAiIHJlc3VsdD0iQmFja2dyb3VuZEltYWdlRml4Ii8+JiN4YTs8ZmVDb2xvck1hdHJpeCBpbj0iU291cmNlQWxwaGEiIHR5cGU9Im1hdHJpeCIgdmFsdWVzPSIwIDAgMCAwIDAgMCAwIDAgMCAwIDAgMCAwIDAgMCAwIDAgMCAxMjcgMCIvPiYjeGE7PGZlT2Zmc2V0IGR4PSIxIiBkeT0iMiIvPiYjeGE7PGZlR2F1c3NpYW5CbHVyIHN0ZERldmlhdGlvbj0iMi41Ii8+JiN4YTs8ZmVDb2xvck1hdHJpeCB0eXBlPSJtYXRyaXgiIHZhbHVlcz0iMCAwIDAgMCAwIDAgMCAwIDAgMCAwIDAgMCAwIDAgMCAwIDAgMC4xIDAiLz4mI3hhOzxmZUJsZW5kIG1vZGU9Im5vcm1hbCIgaW4yPSJCYWNrZ3JvdW5kSW1hZ2VGaXgiIHJlc3VsdD0iZWZmZWN0MV9kcm9wU2hhZG93Ii8+JiN4YTs8ZmVCbGVuZCBtb2RlPSJub3JtYWwiIGluPSJTb3VyY2VHcmFwaGljIiBpbjI9ImVmZmVjdDFfZHJvcFNoYWRvdyIgcmVzdWx0PSJzaGFwZSIvPiYjeGE7PC9maWx0ZXI+JiN4YTs8L2RlZnM+JiN4YTs8L3N2Zz4=" vertex="1" parent="HNRIqbhkoCb8RxChyB7E-1">
          <mxGeometry x="110" y="240" width="190" height="230" as="geometry" />
        </mxCell>
        <mxCell id="HNRIqbhkoCb8RxChyB7E-3" value="Form complex" style="shape=image;verticalLabelPosition=bottom;verticalAlign=top;imageAspect=0;aspect=fixed;image=data:image/svg+xml,PHN2ZyB4bWxucz0iaHR0cDovL3d3dy53My5vcmcvMjAwMC9zdmciIHdpZHRoPSIxOTAiIGhlaWdodD0iMjMwIiB2aWV3Qm94PSIwIDAgMTkwIDIzMCIgZmlsbD0ibm9uZSI+JiN4YTs8ZyBmaWx0ZXI9InVybCgjZmlsdGVyMF9kKSI+JiN4YTs8cmVjdCB4PSI0IiB5PSIzIiB3aWR0aD0iMTgwIiBoZWlnaHQ9IjIyMCIgZmlsbD0id2hpdGUiLz4mI3hhOzxyZWN0IHg9IjMwIiB5PSIxNjMiIHdpZHRoPSIyNyIgaGVpZ2h0PSIyNyIgZmlsbD0iI0Y3RjdGNyIvPiYjeGE7PHJlY3QgeD0iNjQiIHk9IjE2MyIgd2lkdGg9IjI3IiBoZWlnaHQ9IjI3IiBmaWxsPSIjRjdGN0Y3Ii8+JiN4YTs8cmVjdCB4PSI5OCIgeT0iMTYzIiB3aWR0aD0iNjEiIGhlaWdodD0iMjciIGZpbGw9IiNFREVERUQiLz4mI3hhOzxyZWN0IHg9IjI5IiB5PSI5MiIgd2lkdGg9IjEzMCIgaGVpZ2h0PSIyNCIgZmlsbD0iI0VERURFRCIvPiYjeGE7PHBhdGggZD0iTTE0NS41IDEwOEwxMzkuODcxIDEwMS4yNUwxNTEuMTI5IDEwMS4yNUwxNDUuNSAxMDhaIiBmaWxsPSJ3aGl0ZSIvPiYjeGE7PHJlY3QgeD0iMjkiIHk9IjEyNyIgd2lkdGg9IjEzMCIgaGVpZ2h0PSIyNCIgZmlsbD0iI0VERURFRCIvPiYjeGE7PHBhdGggZD0iTTE0NS41IDE0M0wxMzkuODcxIDEzNi4yNUwxNTEuMTI5IDEzNi4yNUwxNDUuNSAxNDNaIiBmaWxsPSJ3aGl0ZSIvPiYjeGE7PHJlY3QgeD0iMjkiIHk9IjU3IiB3aWR0aD0iMTMwIiBoZWlnaHQ9IjI0IiBmaWxsPSIjRURFREVEIi8+JiN4YTs8cGF0aCBkPSJNMjcuNjQ0NSAzMi42MDQ1SDIzLjQ2NzhWMzdIMjIuMTU1M1YyNy4wNDY5SDI4LjMyMTNWMjguMTI3SDIzLjQ2NzhWMzEuNTMxMkgyNy42NDQ1VjMyLjYwNDVaTTI5LjIxIDMzLjIzMzRDMjkuMjEgMzIuNTA4OCAyOS4zNTEyIDMxLjg1NzEgMjkuNjMzOCAzMS4yNzgzQzI5LjkyMDkgMzAuNjk5NSAzMC4zMTc0IDMwLjI1MjkgMzAuODIzMiAyOS45Mzg1QzMxLjMzMzcgMjkuNjI0IDMxLjkxNDcgMjkuNDY2OCAzMi41NjY0IDI5LjQ2NjhDMzMuNTczNiAyOS40NjY4IDM0LjM4NyAyOS44MTU0IDM1LjAwNjggMzAuNTEyN0MzNS42MzEyIDMxLjIxIDM1Ljk0MzQgMzIuMTM3NCAzNS45NDM0IDMzLjI5NDlWMzMuMzgzOEMzNS45NDM0IDM0LjEwMzggMzUuODA0NCAzNC43NTEgMzUuNTI2NCAzNS4zMjUyQzM1LjI1MjkgMzUuODk0OSAzNC44NTg3IDM2LjMzOTIgMzQuMzQzOCAzNi42NTgyQzMzLjgzMzMgMzYuOTc3MiAzMy4yNDU0IDM3LjEzNjcgMzIuNTgwMSAzNy4xMzY3QzMxLjU3NzUgMzcuMTM2NyAzMC43NjQgMzYuNzg4MSAzMC4xMzk2IDM2LjA5MDhDMjkuNTE5OSAzNS4zOTM2IDI5LjIxIDM0LjQ3MDcgMjkuMjEgMzMuMzIyM1YzMy4yMzM0Wk0zMC40ODE0IDMzLjM4MzhDMzAuNDgxNCAzNC4yMDQxIDMwLjY3MDYgMzQuODYyNiAzMS4wNDg4IDM1LjM1OTRDMzEuNDMxNiAzNS44NTYxIDMxLjk0MjEgMzYuMTA0NSAzMi41ODAxIDM2LjEwNDVDMzMuMjIyNyAzNi4xMDQ1IDMzLjczMzEgMzUuODUzOCAzNC4xMTEzIDM1LjM1MjVDMzQuNDg5NiAzNC44NDY3IDM0LjY3ODcgMzQuMTQwMyAzNC42Nzg3IDMzLjIzMzRDMzQuNjc4NyAzMi40MjIyIDM0LjQ4NSAzMS43NjYgMzQuMDk3NyAzMS4yNjQ2QzMzLjcxNDggMzAuNzU4OCAzMy4yMDQ0IDMwLjUwNTkgMzIuNTY2NCAzMC41MDU5QzMxLjk0MjEgMzAuNTA1OSAzMS40Mzg1IDMwLjc1NDIgMzEuMDU1NyAzMS4yNTFDMzAuNjcyOSAzMS43NDc3IDMwLjQ4MTQgMzIuNDU4NyAzMC40ODE0IDMzLjM4MzhaTTQxLjEwNDUgMzAuNzM4M0M0MC45MTMxIDMwLjcwNjQgNDAuNzA1NyAzMC42OTA0IDQwLjQ4MjQgMzAuNjkwNEMzOS42NTMgMzAuNjkwNCAzOS4wOTAyIDMxLjA0MzYgMzguNzkzOSAzMS43NVYzN0gzNy41MjkzVjI5LjYwMzVIMzguNzU5OEwzOC43ODAzIDMwLjQ1OEMzOS4xOTUgMjkuNzk3MiAzOS43ODI5IDI5LjQ2NjggNDAuNTQzOSAyOS40NjY4QzQwLjc5IDI5LjQ2NjggNDAuOTc2OSAyOS40OTg3IDQxLjEwNDUgMjkuNTYyNVYzMC43MzgzWk00My40NjI5IDI5LjYwMzVMNDMuNDk3MSAzMC40MjM4QzQ0LjAzOTQgMjkuNzg1OCA0NC43NzA4IDI5LjQ2NjggNDUuNjkxNCAyOS40NjY4QzQ2LjcyNTkgMjkuNDY2OCA0Ny40MyAyOS44NjMzIDQ3LjgwMzcgMzAuNjU2MkM0OC4wNDk4IDMwLjMwMDggNDguMzY4OCAzMC4wMTM3IDQ4Ljc2MDcgMjkuNzk0OUM0OS4xNTcyIDI5LjU3NjIgNDkuNjI0MyAyOS40NjY4IDUwLjE2MjEgMjkuNDY2OEM1MS43ODQ1IDI5LjQ2NjggNTIuNjA5NCAzMC4zMjU4IDUyLjYzNjcgMzIuMDQzOVYzN0g1MS4zNzIxVjMyLjExOTFDNTEuMzcyMSAzMS41OTA1IDUxLjI1MTMgMzEuMTk2MyA1MS4wMDk4IDMwLjkzNjVDNTAuNzY4MiAzMC42NzIyIDUwLjM2MjYgMzAuNTQgNDkuNzkzIDMwLjU0QzQ5LjMyMzYgMzAuNTQgNDguOTMzOSAzMC42ODEzIDQ4LjYyNCAzMC45NjM5QzQ4LjMxNDEgMzEuMjQxOSA0OC4xMzQxIDMxLjYxNzggNDguMDg0IDMyLjA5MThWMzdINDYuODEyNVYzMi4xNTMzQzQ2LjgxMjUgMzEuMDc3OCA0Ni4yODYxIDMwLjU0IDQ1LjIzMzQgMzAuNTRDNDQuNDA0IDMwLjU0IDQzLjgzNjYgMzAuODkzMiA0My41MzEyIDMxLjU5OTZWMzdINDIuMjY2NlYyOS42MDM1SDQzLjQ2MjlaIiBmaWxsPSIjMzgzODM4Ii8+JiN4YTs8cGF0aCBkPSJNMTIgNEgxNzZWMkgxMlY0Wk0xODMgMTFWMjE1SDE4NVYxMUgxODNaTTE3NiAyMjJIMTJWMjI0SDE3NlYyMjJaTTUgMjE1VjExSDNWMjE1SDVaTTEyIDIyMkM4LjEzNDAxIDIyMiA1IDIxOC44NjYgNSAyMTVIM0MzIDIxOS45NzEgNy4wMjk0NCAyMjQgMTIgMjI0VjIyMlpNMTgzIDIxNUMxODMgMjE4Ljg2NiAxNzkuODY2IDIyMiAxNzYgMjIyVjIyNEMxODAuOTcxIDIyNCAxODUgMjE5Ljk3MSAxODUgMjE1SDE4M1pNMTc2IDRDMTc5Ljg2NiA0IDE4MyA3LjEzNDAxIDE4MyAxMUgxODVDMTg1IDYuMDI5NDQgMTgwLjk3MSAyIDE3NiAyVjRaTTEyIDJDNy4wMjk0NCAyIDMgNi4wMjk0NCAzIDExSDVDNSA3LjEzNDAxIDguMTM0MDEgNCAxMiA0VjJaIiBmaWxsPSIjRURFREVEIi8+JiN4YTs8L2c+JiN4YTs8ZGVmcz4mI3hhOzxmaWx0ZXIgaWQ9ImZpbHRlcjBfZCIgeD0iMCIgeT0iMCIgd2lkdGg9IjE5MCIgaGVpZ2h0PSIyMzAiIGZpbHRlclVuaXRzPSJ1c2VyU3BhY2VPblVzZSIgY29sb3ItaW50ZXJwb2xhdGlvbi1maWx0ZXJzPSJzUkdCIj4mI3hhOzxmZUZsb29kIGZsb29kLW9wYWNpdHk9IjAiIHJlc3VsdD0iQmFja2dyb3VuZEltYWdlRml4Ii8+JiN4YTs8ZmVDb2xvck1hdHJpeCBpbj0iU291cmNlQWxwaGEiIHR5cGU9Im1hdHJpeCIgdmFsdWVzPSIwIDAgMCAwIDAgMCAwIDAgMCAwIDAgMCAwIDAgMCAwIDAgMCAxMjcgMCIvPiYjeGE7PGZlT2Zmc2V0IGR4PSIxIiBkeT0iMiIvPiYjeGE7PGZlR2F1c3NpYW5CbHVyIHN0ZERldmlhdGlvbj0iMi41Ii8+JiN4YTs8ZmVDb2xvck1hdHJpeCB0eXBlPSJtYXRyaXgiIHZhbHVlcz0iMCAwIDAgMCAwIDAgMCAwIDAgMCAwIDAgMCAwIDAgMCAwIDAgMC4xIDAiLz4mI3hhOzxmZUJsZW5kIG1vZGU9Im5vcm1hbCIgaW4yPSJCYWNrZ3JvdW5kSW1hZ2VGaXgiIHJlc3VsdD0iZWZmZWN0MV9kcm9wU2hhZG93Ii8+JiN4YTs8ZmVCbGVuZCBtb2RlPSJub3JtYWwiIGluPSJTb3VyY2VHcmFwaGljIiBpbjI9ImVmZmVjdDFfZHJvcFNoYWRvdyIgcmVzdWx0PSJzaGFwZSIvPiYjeGE7PC9maWx0ZXI+JiN4YTs8L2RlZnM+JiN4YTs8L3N2Zz4=" vertex="1" parent="HNRIqbhkoCb8RxChyB7E-1">
          <mxGeometry x="420" y="240" width="190" height="230" as="geometry" />
        </mxCell>
      </root>
    </mxGraphModel>
  </diagram>
</mxfile>
